<svg width="12" height="12" viewBox="0 0 12 12" fill="none" xmlns="http://www.w3.org/2000/svg">
<g clip-path="url(#clip0_352_1671)">
<path d="M8.54841 3.87542C8.54841 3.16565 8.26646 2.48494 7.76457 1.98306C7.26269 1.48117 6.58198 1.19922 5.87221 1.19922C5.16244 1.19922 4.48174 1.48117 3.97985 1.98306C3.47797 2.48494 3.19601 3.16565 3.19601 3.87542C3.19601 6.99765 1.85791 7.88972 1.85791 7.88972H9.88651C9.88651 7.88972 8.54841 6.99765 8.54841 3.87542Z" stroke="#ECBC76" stroke-width="0.892067" stroke-linecap="round" stroke-linejoin="round"/>
<path d="M6.64386 9.67383C6.56544 9.80901 6.45289 9.92122 6.31747 9.99922C6.18204 10.0772 6.0285 10.1183 5.87222 10.1183C5.71594 10.1183 5.5624 10.0772 5.42698 9.99922C5.29156 9.92122 5.179 9.80901 5.10059 9.67383" stroke="#ECBC76" stroke-width="0.892067" stroke-linecap="round" stroke-linejoin="round"/>
</g>
<defs>
<clipPath id="clip0_352_1671">
<rect width="10.7048" height="10.7048" fill="white" transform="translate(0.52002 0.307129)"/>
</clipPath>
</defs>
</svg>
