<svg width="26" height="26" viewBox="0 0 26 26" fill="none" xmlns="http://www.w3.org/2000/svg">
<path d="M24.3762 13.2528C24.3762 12.3175 24.2988 11.635 24.1312 10.9272H13.2334V15.1486H19.6302C19.5012 16.1976 18.8048 17.7775 17.2572 18.8391L17.2355 18.9804L20.6812 21.5964L20.9199 21.6197C23.1123 19.6354 24.3762 16.7158 24.3762 13.2528Z" fill="#00AA11"/>
<path d="M13.2328 24.3749C16.3667 24.3749 18.9976 23.3637 20.9193 21.6196L17.2566 18.8389C16.2764 19.5088 14.9609 19.9764 13.2328 19.9764C10.1634 19.9764 7.55826 17.9922 6.62961 15.2495L6.49349 15.2608L2.91062 17.9782L2.86377 18.1059C4.77247 21.8217 8.6931 24.3749 13.2328 24.3749Z" fill="#34A853"/>
<path d="M6.62989 15.2496C6.38485 14.5418 6.24304 13.7834 6.24304 12.9999C6.24304 12.2162 6.38485 11.4579 6.617 10.7501L6.61051 10.5994L2.98273 7.83838L2.86404 7.89371C2.07737 9.43567 1.62598 11.1672 1.62598 12.9999C1.62598 14.8325 2.07737 16.564 2.86404 18.1059L6.62989 15.2496Z" fill="#FBBC05"/>
<path d="M13.2329 6.0233C15.4124 6.0233 16.8826 6.94594 17.7209 7.71696L20.9967 4.5825C18.9849 2.74987 16.3668 1.625 13.2329 1.625C8.69313 1.625 4.77248 4.17804 2.86377 7.89384L6.61674 10.7503C7.55829 8.00763 10.1634 6.0233 13.2329 6.0233Z" fill="#EB4335"/>
</svg>
