<svg width="34" height="31" viewBox="0 0 34 31" fill="none" xmlns="http://www.w3.org/2000/svg">
<path fill-rule="evenodd" clip-rule="evenodd" d="M1.4165 3.66559C1.4165 3.03594 1.69084 2.43209 2.17915 1.98686C2.66746 1.54163 3.32976 1.29151 4.02034 1.29151H29.9765C30.3187 1.291 30.6577 1.35204 30.974 1.47113C31.2904 1.59023 31.5778 1.76504 31.8199 1.98557C32.0621 2.20609 32.2541 2.46799 32.3851 2.75627C32.516 3.04455 32.5834 3.35356 32.5832 3.66559V27.3315C32.5835 27.6436 32.5164 27.9527 32.3856 28.2411C32.2549 28.5295 32.063 28.7916 31.821 29.0124C31.5791 29.2331 31.2917 29.4082 30.9755 29.5276C30.6592 29.647 30.3202 29.7083 29.9779 29.7082H4.02034C3.67828 29.7082 3.33957 29.6467 3.02357 29.5273C2.70756 29.4079 2.42046 29.233 2.17865 29.0124C1.93684 28.7918 1.74507 28.5299 1.6143 28.2417C1.48353 27.9535 1.41632 27.6447 1.4165 27.3328V3.66559ZM13.7528 12.126H17.9731V14.0583C18.5823 12.9475 20.1406 11.9478 22.4823 11.9478C26.9718 11.9478 28.0357 14.1604 28.0357 18.2201V25.7402H23.4924V19.1449C23.4924 16.8328 22.8833 15.5283 21.3363 15.5283C19.19 15.5283 18.2975 16.9349 18.2975 19.1449V25.7402H13.7528V12.126ZM5.96117 25.5632H10.5058V11.9478H5.96117V25.5632ZM11.1561 7.50701C11.1647 7.86179 11.0954 8.21457 10.9524 8.54462C10.8094 8.87468 10.5956 9.17537 10.3234 9.42905C10.0512 9.68273 9.72624 9.88428 9.36748 10.0219C9.00872 10.1595 8.62343 10.2304 8.23421 10.2304C7.845 10.2304 7.45971 10.1595 7.10094 10.0219C6.74218 9.88428 6.41718 9.68273 6.14501 9.42905C5.87284 9.17537 5.65899 8.87468 5.516 8.54462C5.37301 8.21457 5.30377 7.86179 5.31234 7.50701C5.32916 6.81061 5.64438 6.1479 6.19051 5.66081C6.73663 5.17372 7.47024 4.90096 8.23421 4.90096C8.99819 4.90096 9.73179 5.17372 10.2779 5.66081C10.824 6.1479 11.1393 6.81061 11.1561 7.50701Z" fill="#0B82ED"/>
</svg>
