<svg width="22" height="20" viewBox="0 0 22 20" fill="none" xmlns="http://www.w3.org/2000/svg">
<g id="&#240;&#159;&#166;&#134; icon &#34;user&#34;">
<path id="Vector" fill-rule="evenodd" clip-rule="evenodd" d="M4.91864 16.0411C6.46983 17.3129 8.51007 18.0849 10.7451 18.0849C12.9802 18.0849 15.0204 17.3129 16.5716 16.0411C16.2857 15.0895 14.2318 14.468 10.7451 14.468C7.25844 14.468 5.20454 15.0895 4.91864 16.0411ZM3.51708 14.5807C4.61645 13.2364 7.19982 12.6595 10.7451 12.6595C14.2904 12.6595 16.8738 13.2364 17.9732 14.5807C18.9589 13.2656 19.5366 11.6686 19.5366 9.94672C19.5366 5.4521 15.6005 1.80849 10.7451 1.80849C5.88973 1.80849 1.95366 5.4521 1.95366 9.94672C1.95366 11.6686 2.53134 13.2656 3.51708 14.5807ZM10.7451 19.8934C4.81075 19.8934 0 15.4401 0 9.94672C0 4.4533 4.81075 0 10.7451 0C16.6795 0 21.4902 4.4533 21.4902 9.94672C21.4902 15.4401 16.6795 19.8934 10.7451 19.8934ZM6.8378 8.13823C6.8378 6.10888 8.38031 4.52124 10.7451 4.52124C13.1034 4.52124 14.6524 6.25882 14.6524 8.31907C14.6524 11.2847 12.9118 12.6595 10.7451 12.6595C8.55786 12.6595 6.8378 11.2374 6.8378 8.13823ZM8.79146 8.13823C8.79146 10.1902 9.59071 10.851 10.7451 10.851C11.8955 10.851 12.6988 10.2165 12.6988 8.31907C12.6988 7.18914 11.9326 6.32973 10.7451 6.32973C9.5082 6.32973 8.79146 7.06744 8.79146 8.13823Z" fill="#C99457"/>
</g>
</svg>
