<svg width="19" height="19" viewBox="0 0 19 19" fill="none" xmlns="http://www.w3.org/2000/svg">
<g id="&#240;&#159;&#166;&#134; icon &#34;trash&#34;">
<path id="Vector" fill-rule="evenodd" clip-rule="evenodd" d="M4.75 2.47789V1.65193C4.75 0.739593 5.60066 0 6.65 0H12.35C13.3993 0 14.25 0.739593 14.25 1.65193V2.47789H17.1C18.1493 2.47789 19 3.21749 19 4.12982V5.78175C19 6.69408 18.1493 7.43368 17.1 7.43368H17.0239L16.15 16.5193C16.15 17.4316 15.2993 18.1712 14.25 18.1712H4.75C3.70066 18.1712 2.85 17.4316 2.85328 16.5879L1.97587 7.43368H1.9C0.850659 7.43368 0 6.69408 0 5.78175V4.12982C0 3.21749 0.850659 2.47789 1.9 2.47789H4.75ZM4.75 4.12982H1.9V5.78175H17.1V4.12982H14.25H4.75ZM3.88216 7.43368L4.75 16.5193H14.25L14.2533 16.4507L15.1175 7.43368H3.88216ZM12.35 2.47789V1.65193H6.65V2.47789H12.35Z" fill="#D21F1F"/>
</g>
</svg>
