<svg width="19" height="19" viewBox="0 0 19 19" fill="none" xmlns="http://www.w3.org/2000/svg">
<g id="&#240;&#159;&#166;&#134; icon &#34;pencil create&#34;">
<path id="Vector" fill-rule="evenodd" clip-rule="evenodd" d="M9.78718 5.40094L2.56129 12.3092C2.1764 12.6347 1.93829 13.0901 1.89999 13.5068V16.3549L4.81077 16.3566C5.31828 16.3222 5.7907 16.0963 6.17004 15.6814L13.3538 8.81175L9.78718 5.40094ZM11.1308 4.11634L14.6973 7.527L16.9715 5.35227C17.0538 5.2736 17.1 5.16689 17.1 5.05562C17.1 4.94436 17.0538 4.83765 16.9715 4.75897L14.023 1.93942C13.9417 1.86101 13.831 1.81691 13.7154 1.81691C13.5999 1.81691 13.4892 1.86101 13.4079 1.93942L11.1308 4.11634ZM13.7154 0C14.3374 0 14.9337 0.237488 15.3692 0.657197L18.315 3.47422C18.7536 3.89364 19 4.46248 19 5.05562C19 5.64876 18.7536 6.21761 18.315 6.63702L7.55961 16.9188C6.89605 17.6508 5.95544 18.1005 4.87786 18.1712H0V17.2628L0.00308534 13.4336C0.0840162 12.4757 0.549732 11.5849 1.26017 10.9863L12.0606 0.658292C12.4985 0.236952 13.0941 0 13.7154 0Z" fill="#6B04AB"/>
</g>
</svg>
