<svg width="25" height="24" viewBox="0 0 25 24" fill="none" xmlns="http://www.w3.org/2000/svg">
<g id="solar:document-linear">
<g id="Group">
<path id="Vector" d="M3.08887 10C3.08887 6.229 3.08887 4.343 4.2757 3.172C5.46153 2 7.3714 2 11.1901 2H13.2154C17.0342 2 18.9441 2 20.1299 3.172C21.3167 4.343 21.3167 6.229 21.3167 10V14C21.3167 17.771 21.3167 19.657 20.1299 20.828C18.9441 22 17.0342 22 13.2154 22H11.1901C7.3714 22 5.46153 22 4.2757 20.828C3.08887 19.657 3.08887 17.771 3.08887 14V10Z" stroke="black" stroke-width="1.5"/>
<path id="Vector_2" d="M8.1521 10H16.2534M8.1521 14H13.2154" stroke="black" stroke-width="1.5" stroke-linecap="round"/>
</g>
</g>
</svg>
