<svg width="26" height="25" viewBox="0 0 26 25" fill="none" xmlns="http://www.w3.org/2000/svg">
<path id="Vector" d="M12.6155 6.17035C11.3888 6.17035 10.1896 6.52958 9.1696 7.2026C8.1496 7.87563 7.35461 8.83222 6.88515 9.95142C6.4157 11.0706 6.29286 12.3021 6.53219 13.4903C6.77152 14.6784 7.36225 15.7698 8.22969 16.6264C9.09713 17.483 10.2023 18.0663 11.4055 18.3027C12.6087 18.539 13.8558 18.4177 14.9891 17.9541C16.1225 17.4905 17.0912 16.7055 17.7728 15.6982C18.4543 14.691 18.8181 13.5068 18.8181 12.2954C18.8181 10.6709 18.1646 9.11299 17.0014 7.96433C15.8382 6.81567 14.2606 6.17035 12.6155 6.17035ZM12.6155 15.7954C11.9145 15.7954 11.2293 15.5901 10.6464 15.2055C10.0636 14.8209 9.60929 14.2743 9.34103 13.6347C9.07277 12.9952 9.00258 12.2915 9.13934 11.6125C9.2761 10.9336 9.61366 10.31 10.1093 9.82048C10.605 9.331 11.2366 8.99765 11.9241 8.86261C12.6116 8.72756 13.3243 8.79687 13.9719 9.06178C14.6195 9.32668 15.1731 9.77529 15.5625 10.3509C15.952 10.9264 16.1598 11.6031 16.1598 12.2954C16.1569 13.2227 15.7826 14.1113 15.1185 14.767C14.4545 15.4228 13.5547 15.7925 12.6155 15.7954ZM24.7991 14.4829L23.2374 12.4266V12.1641L24.7991 10.1079C24.9178 9.94782 24.9993 9.76383 25.0376 9.56907C25.0759 9.3743 25.0701 9.17358 25.0206 8.98129C24.7345 7.93203 24.31 6.92444 23.7579 5.98442C23.6588 5.81063 23.5201 5.66191 23.3529 5.54995C23.1857 5.43798 22.9945 5.36581 22.7943 5.3391L20.2358 4.97817L20.0254 4.77035L19.6598 2.24379C19.6328 2.0461 19.5597 1.85729 19.4463 1.69218C19.3329 1.52708 19.1824 1.39018 19.0064 1.29223C18.0544 0.74712 17.0341 0.327906 15.9716 0.045354C15.7771 -0.00670544 15.5732 -0.014057 15.3754 0.0238642C15.1776 0.0617854 14.9913 0.14397 14.8307 0.264104L12.7595 1.79535H12.4716L10.4004 0.264104C10.2383 0.146827 10.052 0.0663973 9.85475 0.0285788C9.65752 -0.00923979 9.45426 -0.00351121 9.25953 0.045354C8.19698 0.327906 7.17664 0.74712 6.22472 1.29223C6.04873 1.39018 5.89813 1.52708 5.78475 1.69218C5.67137 1.85729 5.59828 2.0461 5.57124 2.24379L5.20573 4.77035C5.13014 4.83403 5.05977 4.90352 4.99529 4.97817L2.43674 5.3391C2.23655 5.36581 2.04535 5.43798 1.87815 5.54995C1.71096 5.66191 1.57233 5.81063 1.47314 5.98442C0.921128 6.92444 0.496607 7.93203 0.210479 8.98129C0.15776 9.1733 0.150316 9.37469 0.188717 9.56998C0.227118 9.76528 0.310343 9.94928 0.431998 10.1079L1.99371 12.1641V12.4266L0.431998 14.4829C0.313236 14.6429 0.231789 14.8269 0.193491 15.0216C0.155194 15.2164 0.160995 15.4171 0.210479 15.6094C0.496607 16.6587 0.921128 17.6663 1.47314 18.6063C1.57233 18.7801 1.71096 18.9288 1.87815 19.0408C2.04535 19.1527 2.23655 19.2249 2.43674 19.2516L4.99529 19.6125L5.20573 19.8204L5.57124 22.3469C5.59828 22.5446 5.67137 22.7334 5.78475 22.8985C5.89813 23.0636 6.04873 23.2005 6.22472 23.2985C7.17664 23.8436 8.19698 24.2628 9.25953 24.5454C9.37116 24.5766 9.48687 24.5914 9.60288 24.5891C9.89073 24.5907 10.1711 24.4984 10.4004 24.3266L12.4716 22.7954H12.7595L14.8307 24.3266C14.9928 24.4439 15.1791 24.5243 15.3763 24.5621C15.5736 24.5999 15.7768 24.5942 15.9716 24.5454C17.0341 24.2628 18.0544 23.8436 19.0064 23.2985C19.1824 23.2005 19.3329 23.0636 19.4463 22.8985C19.5597 22.7334 19.6328 22.5446 19.6598 22.3469L20.0364 19.8094L20.2247 19.6235L22.7943 19.2516C22.9945 19.2249 23.1857 19.1527 23.3529 19.0408C23.5201 18.9288 23.6588 18.7801 23.7579 18.6063C24.31 17.6663 24.7345 16.6587 25.0206 15.6094C25.0733 15.4174 25.0808 15.216 25.0424 15.0207C25.004 14.8254 24.9207 14.6414 24.7991 14.4829ZM21.7532 16.7469L19.394 17.086C19.0986 17.129 18.826 17.2675 18.6187 17.4797C18.4304 17.6766 18.076 18.0375 17.8988 18.1907C17.665 18.399 17.5122 18.6814 17.4668 18.9891L17.1235 21.3188C16.7228 21.519 16.3083 21.6908 15.8829 21.8329L13.9779 20.411C13.7267 20.2253 13.4158 20.1359 13.1029 20.1594H12.1282C11.8155 20.1379 11.5053 20.2271 11.2532 20.411L9.34814 21.8329C8.92279 21.6908 8.50824 21.519 8.10763 21.3188L7.76428 18.9891C7.7189 18.6814 7.56612 18.399 7.33231 18.1907C7.0871 17.9813 6.8576 17.7547 6.64561 17.5125C6.43466 17.2817 6.14868 17.1308 5.83706 17.086L3.47788 16.7469C3.2751 16.3513 3.10114 15.9419 2.95731 15.5219L4.39719 13.6407C4.5737 13.403 4.66701 13.1151 4.66301 12.8204C4.65193 12.5469 4.64086 12.0438 4.65193 11.8141C4.67376 11.5053 4.58344 11.199 4.39719 10.95L2.95731 9.06879C3.10114 8.64876 3.2751 8.23939 3.47788 7.84379L5.83706 7.50473C6.14868 7.45992 6.43466 7.30905 6.64561 7.07817C6.8576 6.83602 7.0871 6.60938 7.33231 6.40004C7.56612 6.19173 7.7189 5.90932 7.76428 5.6016L8.10763 3.27192C8.50824 3.07167 8.92279 2.89988 9.34814 2.75785L11.2532 4.17973C11.5044 4.36543 11.8153 4.45482 12.1282 4.43129C12.4494 4.42035 12.7817 4.42035 13.1029 4.43129C13.4158 4.45482 13.7267 4.36543 13.9779 4.17973L15.8829 2.75785C16.3083 2.89988 16.7228 3.07167 17.1235 3.27192L17.4668 5.6016C17.5122 5.90932 17.665 6.19173 17.8988 6.40004C18.144 6.60938 18.3735 6.83602 18.5855 7.07817C18.7964 7.30905 19.0824 7.45992 19.394 7.50473L21.7532 7.84379C21.956 8.23939 22.1299 8.64876 22.2738 9.06879L20.8339 10.95C20.6559 11.1864 20.5659 11.4761 20.5791 11.7704C20.5791 12.0438 20.5902 12.5469 20.5791 12.7766C20.5553 13.0856 20.6458 13.3926 20.8339 13.6407L22.2738 15.5219C22.1299 15.9419 21.956 16.3513 21.7532 16.7469Z" fill="black"/>
</svg>
