<svg width="22" height="21" viewBox="0 0 22 21" fill="none" xmlns="http://www.w3.org/2000/svg">
<path id="Vector" d="M11.9662 5.83333V1.16667C11.9662 0.836111 12.0796 0.558833 12.3065 0.334833C12.5325 0.111611 12.8129 0 13.1476 0H20.2362C20.571 0 20.8514 0.111611 21.0774 0.334833C21.3043 0.558833 21.4177 0.836111 21.4177 1.16667V5.83333C21.4177 6.16389 21.3043 6.44078 21.0774 6.664C20.8514 6.888 20.571 7 20.2362 7H13.1476C12.8129 7 12.5325 6.888 12.3065 6.664C12.0796 6.44078 11.9662 6.16389 11.9662 5.83333ZM0.151855 10.5V1.16667C0.151855 0.836111 0.265273 0.558833 0.492109 0.334833C0.718157 0.111611 0.99855 0 1.33329 0H8.4219C8.75664 0 9.03743 0.111611 9.26426 0.334833C9.49031 0.558833 9.60333 0.836111 9.60333 1.16667V10.5C9.60333 10.8306 9.49031 11.1074 9.26426 11.3307C9.03743 11.5547 8.75664 11.6667 8.4219 11.6667H1.33329C0.99855 11.6667 0.718157 11.5547 0.492109 11.3307C0.265273 11.1074 0.151855 10.8306 0.151855 10.5ZM11.9662 19.8333V10.5C11.9662 10.1694 12.0796 9.89217 12.3065 9.66817C12.5325 9.44494 12.8129 9.33333 13.1476 9.33333H20.2362C20.571 9.33333 20.8514 9.44494 21.0774 9.66817C21.3043 9.89217 21.4177 10.1694 21.4177 10.5V19.8333C21.4177 20.1639 21.3043 20.4408 21.0774 20.664C20.8514 20.888 20.571 21 20.2362 21H13.1476C12.8129 21 12.5325 20.888 12.3065 20.664C12.0796 20.4408 11.9662 20.1639 11.9662 19.8333ZM0.151855 19.8333V15.1667C0.151855 14.8361 0.265273 14.5588 0.492109 14.3348C0.718157 14.1116 0.99855 14 1.33329 14H8.4219C8.75664 14 9.03743 14.1116 9.26426 14.3348C9.49031 14.5588 9.60333 14.8361 9.60333 15.1667V19.8333C9.60333 20.1639 9.49031 20.4408 9.26426 20.664C9.03743 20.888 8.75664 21 8.4219 21H1.33329C0.99855 21 0.718157 20.888 0.492109 20.664C0.265273 20.4408 0.151855 20.1639 0.151855 19.8333ZM2.51472 9.33333H7.24046V2.33333H2.51472V9.33333ZM14.3291 18.6667H19.0548V11.6667H14.3291V18.6667ZM14.3291 4.66667H19.0548V2.33333H14.3291V4.66667ZM2.51472 18.6667H7.24046V16.3333H2.51472V18.6667Z" fill="black"/>
</svg>
