<svg width="11" height="11" viewBox="0 0 11 11" fill="none" xmlns="http://www.w3.org/2000/svg">
<g id="icon / outlined / action / notification / notification on" clip-path="url(#clip0_1_598)">
<path id="Vector" d="M8.14706 4.02986C8.14706 3.35122 7.87747 2.70037 7.3976 2.2205C6.91772 1.74063 6.26688 1.47104 5.58824 1.47104C4.90959 1.47104 4.25875 1.74063 3.77887 2.2205C3.299 2.70037 3.02941 3.35122 3.02941 4.02986C3.02941 7.01516 1.75 7.8681 1.75 7.8681H9.42647C9.42647 7.8681 8.14706 7.01516 8.14706 4.02986Z" stroke="#ECBC76" stroke-width="0.852941" stroke-linecap="round" stroke-linejoin="round"/>
<path id="Vector_2" d="M6.32617 9.57397C6.2512 9.70323 6.14358 9.81052 6.01409 9.8851C5.88461 9.95968 5.73781 9.99893 5.58838 9.99893C5.43895 9.99893 5.29215 9.95968 5.16267 9.8851C5.03318 9.81052 4.92556 9.70323 4.85059 9.57397" stroke="#ECBC76" stroke-width="0.852941" stroke-linecap="round" stroke-linejoin="round"/>
</g>
<defs>
<clipPath id="clip0_1_598">
<rect width="10.2353" height="10.2353" fill="white" transform="translate(0.470703 0.618103)"/>
</clipPath>
</defs>
</svg>
