<svg width="39" height="39" viewBox="0 0 39 39" fill="none" xmlns="http://www.w3.org/2000/svg">
<g id="mingcute:edit-fill" clip-path="url(#clip0_1_293)">
<g id="Group">
<path id="Vector" d="M24.375 4.87501C26.481 4.87501 28.431 5.54126 30.0251 6.67876L15.1824 21.5199C15.0272 21.6698 14.9034 21.8491 14.8182 22.0473C14.733 22.2456 14.6882 22.4588 14.6863 22.6746C14.6845 22.8904 14.7256 23.1043 14.8073 23.3041C14.889 23.5038 15.0097 23.6852 15.1622 23.8378C15.3148 23.9904 15.4962 24.111 15.6959 24.1927C15.8957 24.2744 16.1096 24.3155 16.3254 24.3137C16.5412 24.3118 16.7544 24.267 16.9527 24.1818C17.1509 24.0966 17.3302 23.9728 17.4801 23.8176L32.3229 8.97488C33.498 10.6243 34.128 12.5998 34.125 14.625V30.875C34.125 31.737 33.7826 32.5636 33.1731 33.1731C32.5636 33.7826 31.737 34.125 30.875 34.125H8.125C7.26305 34.125 6.4364 33.7826 5.8269 33.1731C5.21741 32.5636 4.875 31.737 4.875 30.875V8.12501C4.875 7.26305 5.21741 6.4364 5.8269 5.82691C6.4364 5.21742 7.26305 4.87501 8.125 4.87501H24.375ZM35.1926 3.80738C35.4973 4.11211 35.6684 4.52537 35.6684 4.95626C35.6684 5.38715 35.4973 5.8004 35.1926 6.10513L32.3212 8.97488C31.6884 8.08652 30.9119 7.30994 30.0235 6.67713L32.8933 3.80738C33.198 3.50274 33.6112 3.3316 34.0421 3.3316C34.473 3.3316 34.8879 3.50274 35.1926 3.80738Z" fill="#A9592C"/>
</g>
</g>
<defs>
<clipPath id="clip0_1_293">
<rect width="39" height="39" fill="white"/>
</clipPath>
</defs>
</svg>
